<?xml version="1.0" encoding="utf-8"?>
<!-- Generator: Adobe Illustrator 14.0.0, SVG Export Plug-In . SVG Version: 6.00 Build 43363)  -->
<!DOCTYPE svg PUBLIC "-//W3C//DTD SVG 1.1//EN" "http://www.w3.org/Graphics/SVG/1.1/DTD/svg11.dtd">
<svg version="1.1" id="Layer_1" xmlns="http://www.w3.org/2000/svg" xmlns:xlink="http://www.w3.org/1999/xlink" x="0px" y="0px"
	 width="612px" height="792px" viewBox="0 0 612 792" enable-background="new 0 0 612 792" xml:space="preserve">
<g>
	<polygon fill-rule="evenodd" clip-rule="evenodd" fill="#FFFFFF" points="209,300 401.756,300 401.756,492.756 209,492.756 
		209,300 	"/>
	<path fill-rule="evenodd" clip-rule="evenodd" fill="#005BAA" d="M299.16,415.238c0-2.367-1.119-3.553-1.119-3.553
		s0.066-2.236,0.132-4.143c0.46-1.316,0-2.697,0-2.697c0-2.105-0.264-5.789-0.264-5.789s-1.052-10.523-1.052-10.852
		c0-0.329-0.789-1.776-1.25-3.026c-0.46-1.25,0.92-2.631,0.92-2.631s1.645-0.592,1.316-3.026c-0.329-2.433-2.565-2.302-2.565-2.302
		c-1.184,0.264-0.986-0.724-0.986-0.724l-0.329-2.499c0,0-0.329-5.328-0.592-6.183c0.132-0.525-0.921-2.434-0.921-2.434
		s0-0.394-0.065-0.789c-0.46-0.462-1.512-3.552-1.512-3.552l-0.527-1.316c0-2.603,0.052-4.649-0.171-6.27
		c-0.815-4.386-1.999-5.898-2.394-6.753c0.066-0.921-0.855-3.552-0.855-3.552s-0.263-1.118-1.184-2.565
		c-1.38-1.907-0.591-1.052-3.552-1.973c-2.959-0.921-3.683-1.25-3.683-1.25c-0.526,0.198-1.25-0.197-3.002-0.804
		c-1.199-0.996-1.142-2.55-1.142-2.55c0.329-1.052,0.567-2.352,0.768-3.611c1.14-2.638,0.614-5.269,0.614-5.269
		s-0.065-2.237-3.026-1.842c-1.513-0.132-4.078,3.42-4.078,3.42s-0.461,0.921-1.207,1.563c-0.367,0.497-0.722,1.002-0.898,1.332
		c-2.762,2.039-3.42,6.512-3.42,6.512s-0.132,0.986-0.592,1.38c-3.617,1.71-2.763,1.58-2.763,1.58l-0.789,0.131l-1.709,3.224
		c0,0-0.461,0.395-0.264,0.856c1.184,0.723,2.5,2.301,2.5,2.301s0.066,0.724-0.065,1.513c-1.164,2.681-2.021,5.758-2.652,8.876
		c-1.427,10.331-1.755,19.54-1.755,19.54s-0.526,6.314-1.184,10.655c-0.79,1.58-1.448,7.302-1.448,7.302
		c-0.077,0.387-0.953,1.34-1.989,2.355c-2.352,1.459-3.602,3.301-3.602,3.301c0,0.066-1.25,2.303-0.658,5.262
		c-0.329,2.369,0.921,3.486,0.921,3.486l-0.329,0.988c0,0-0.592,0.787,0.46,2.762c1.184,0.789,1.842,0.328,1.842,0.328
		c0.592-0.328,1.25-1.184,1.71-0.855c0.264,0.264,0.592,1.711,0.198,2.762c-0.396,1.053-1.053,15.787-1.25,21.313
		c-0.197,5.525,0.724,6.314,0.724,6.314s0,2.17,1.776,1.908c0.592,0.262,1.645,0,1.645,0s2.828-0.855,2.959-4.539
		c1.053-3.289,0.79-5.461,0.79-5.461s0.131-2.365-0.066-3.354c-0.197-0.986-0.065-2.303-0.065-2.303
		c0.395-1.973,0.658-3.223,0.658-3.223s0.197-1.643,0.197-1.709c0-0.064,0.131-4.67,0.131-5.064c0,0,0.395-0.725,0.329-2.369
		c1.052-2.367,1.514-8.748,1.514-8.748s0.065-1.711,1.775-2.5c1.513,0.133,2.631-1.117,2.631-1.117l11.84-8.484l1.776-1.316
		c0,0,0.789,0.065,1.381-0.066c1.644-0.723,2.039-1.052,2.039-1.052s0.921-0.395,1.709-0.592c0.527-0.723,2.5-2.17,2.5-2.17
		s0.986-0.723,1.25,0.724c0.724,3.091,1.908,5.591,1.908,5.591c-0.921,1.908-0.789,2.566-0.789,2.566l0.526,1.775l0.329,2.893
		c0.987,2.303,1.184,2.764,1.184,2.764l1.052,8.486c0,0,0.461,4.273,0.724,4.537c0.263,0.264,1.052,3.42,1.052,3.42l0.132,3.486
		c0,0,0.527,2.697,2.302,2.434c3.486-1.051,3.355-4.932,3.355-4.932S299.16,417.607,299.16,415.238L299.16,415.238z
		 M284.098,382.219c-1.48,0.888-5.525,3.059-6.808,3.354s-0.888-0.789-2.072,0c-6.808,4.045-10.359,4.44-10.359,4.44
		s-0.889,0.69-2.171,0.296c-0.592-0.79,0-3.058,0-3.058s2.072-7.696,2.27-10.755c0.69-2.664,0.099-4.933,0.099-4.933
		s1.973-6.117,2.17-7.203c0.197-1.085,0.69-0.689,0.493-3.156v-3.257c0,0,1.677-5.426,3.947-5.426c2.466,0,6.413,4.539,6.413,4.539
		l2.072,2.467l1.677,5.624c0,0,0.197,3.256,1.776,5.723c0.099,5.722,0.888,7.499,0.888,7.695
		C284.492,378.766,285.577,381.332,284.098,382.219L284.098,382.219z"/>
	<path fill-rule="evenodd" clip-rule="evenodd" fill="#005BAA" d="M322.971,332.295c0,0-3.157,3.552-1.185,5.723
		c2.171,2.86,7.301-4.244,7.301-4.244s5.131-5.229,10.163-12.529c1.874-0.889,1.085-6.118,1.085-6.118s-0.395-3.848-1.677-4.934
		c-0.594-0.789-1.283-2.368-5.229-1.085l-7.202,5.426l-4.243,3.158c0,0-1.085,0.591-2.327,2.413
		c-0.812,0.861-1.796,1.922-2.887,3.133c-1.199,0.866-4.468,5.075-6.824,8.068c-2.648,4.007-4.931,8.614-5.82,13.419
		c0,0,0.198,0.296-0.394,1.579c-0.592,1.283-2.171,5.919,1.874,16.576c1.282,1.875,2.269,2.664,2.269,2.664s2.073,0.986,3.06,1.972
		c0.986,0.987,1.678,1.974,2.071,2.763l2.565,2.27c0,0,7.753,4.433,9.451,5.917s3.868,3.358,6.236,5.233
		c0,0,5.427,4.341,5.723,7.893c-0.099,2.664-1.874,4.539-1.874,4.539s-0.493,0.887-0.1,1.875c0,0,0.69,1.381-0.196,2.17
		c-0.79,1.48-3.553,5.623-3.553,5.623s-1.184,1.332-1.977,0.344c-0.16-0.199-0.206-0.393-0.046-1.084l2.121-1.775
		c0,0,2.368-1.332,1.578-3.945c-0.295-0.939-1.332-0.74-1.332-0.74s-0.69-0.445-3.748,2.613
		c-13.369,11.002-13.419,11.494-13.419,11.494s-3.649,4.688-2.171,6.857c1.481,2.17,5.41,4.078,9.07,3.275
		c2.276-1.252,4.053-2.486,5.434-3.373c0,0,9.817-6.906,16.822-19.783c0.813-0.26,1.925-1.135,4.016-1.691
		c5.456-1.169,7.479-3.586,7.479-3.586l-3.7-5.525c0,0-1.974,2.072-3.059,0.345c-1.086-1.727,0.098-5.476-3.749-11.445
		c0,0-2.517-3.552-5.772-5.426c-1.874-1.776-13.615-11.297-13.615-11.297s-10.311-8.091-10.409-14.997
		c-0.246-2.072,2.221-7.894,2.221-7.894s3.206-5.821,6.659-10.014c0.888-1.332,1.775-0.592,1.775-0.592s0.297,0.839-0.098,1.283
		C324.943,329.286,322.971,332.295,322.971,332.295L322.971,332.295z"/>
	<path fill-rule="evenodd" clip-rule="evenodd" d="M362.962,445.463l-1.579,2.4c-1.907,2.467-1.645,0-1.645,0
		s0.099-1.58,0.099-2.961c-1.314-3.65-5.985-3.684-5.985-3.684c-2.269,0.066-3.19,1.744-3.649,2.139
		c-0.461,0.395-0.231,0.789-0.231,0.789s1.546,0.131,0.231,2.072c-3.651,7.465-4.703,6.414-4.703,6.414s-1.81,0.656-2.402-2.666
		c-0.427-1.281-1.973-0.492-1.973-0.492c-1.118,0.559-2.04,3.059-2.93,3.293c-1.245,1.641-2.365,3.119-2.365,3.119l-0.033,0.066
		c0,0-1.118,1.35-0.723-0.525c3.716-7.137,6.248-9.57,6.248-9.57s0.23-0.725-0.131-1.547c-2.992-1.412-10.229,10.426-10.229,10.426
		c0-0.033-0.888,0.461-1.217,1.645c-1.743,2.895-4.966,3.256-4.966,3.256c-1.143,0.047-3.093-0.658-3.717-2.236
		c-0.197-0.498,3.749-7.398,2.218-16.344c-0.322-1.797-1.137-3.012-2.743-3.061c-2.27,0.361-3.139,2.619-3.548,5.465
		c-1.55,10.947,0.949,14.564,0.949,14.564s1.118-0.428-0.032,0.041c-0.316,0.98-0.658,0.518-1.206,1.768
		c-0.504,1.809-1.743,1.504-1.887,1.453c-0.975-0.346-2.071-2.242-2.071-2.242s-0.131-0.264-0.592-0.922
		c-2.039-0.197-2.696,1.186-2.696,1.186c0,0.098-2.237,7.596-3.717,7.137c-1.546-1.186-1.841-3.553-1.841-3.553l-0.131-4.047
		c0,0-0.165-0.59-0.297-1.248c-0.92-0.494-2.794,1.547-2.794,1.547s-1.25,4.076-2.96,7.004c-3.781,6.051-7.268,3.617-8.55,2.137
		c-0.114-0.131-0.22-0.275-0.318-0.428c0.077-0.242,0.607-1.955,2.336-8.262c0.578-3.604,0.758-7.619-1.196-10.352
		c0,0-1.513-1.941-4.045,0.822c0,0-3.941,9.426-0.073,18.4c-0.058,0.096-0.091,0.148-0.091,0.148s-0.986,0.658-1.677,2.467
		c-3.289,4.275-7.598,2.73-5.599,0.422c0.533-0.76,1.381-1.84,1.882-4.105c1.02-4.012-2.467-3.881-2.467-3.881
		c-6.051,1.283-4.374,9.832-4.374,9.832s-0.954,0.855-0.92,1.611c-0.889,1.383-7.499,9.506-9.439,4.475
		c-0.147-1.646,1.369-3.59,2.882-5.014c1.871-1.76,3.737-2.934,2.446-4.262c-1.744-2.861-8.847,7.631-8.847,7.631l-1.118,1.348
		c0,0-0.757,0.494-0.263,0.789c1.151,0.297,1.315,0.988,1.315,0.988s-0.263,3.781,4.244,3.145c0.729-0.045,1.653-0.332,3.367-0.914
		c2.334-1.029,3.572-2.955,3.572-2.955l3.584-4.342c0.273-0.348,0.545-0.682,0.792-0.697c0.615-0.037,1.083,0.861,1.083,0.861
		s1.908,2.205,5.59,0.297c3.684-1.906,4.375-4.406,4.375-4.406c0.756-1.744,1.25-1.02,1.25-1.02s0.741,1.096,1.788,1.822
		c2.093,1.105,4.759,0.34,5.649-0.104c3.273-1.635,4.797-6.127,4.797-6.127s0.69-1.775,1.02-0.525
		c1.479,4.045,4.242,3.551,4.242,3.551c2.697,0.066,5.164-5.688,5.164-6.248c0-0.92,0.888-0.131,0.888-0.131s1.02,1.875,3.552,1.215
		c4.177-1.314,3.914-3.682,4.309-4.043c0.395-0.363,0.854-0.033,0.854-0.033s0.757,1.939,3.157,2.564
		c5.821,0.066,7.795-4.078,7.795-4.078c0.361-1.412,0.854-1.084,0.854-1.084c0.379,0.6-0.212,0.793-0.338,1.389
		c-0.153,0.725,0.04,1.541,1.917,2.064c1.645,0.295,4.539-3.125,4.834-3.979c0.296-0.857,0.889-1.547,0.889-1.547l1.216-1.939
		l0.692,0.064c0,0,1.479,3.914,5.82,1.348c1.842-0.986,5.163-6.939,5.985-8.584c0.823-1.645,1.842-1.578,1.842-1.578
		s1.185-0.295,2.006,1.645c0.823,1.941,0.362,4.375,0.362,4.375s-0.164,1.875,0.888,1.908c1.81,0.393,4.835-3.291,4.835-3.291
		s1.546-1.348,2.302-2.795C363.948,446.516,362.962,445.463,362.962,445.463L362.962,445.463z M277.684,466.971
		c1.333,0.938-0.986,3.848-0.986,3.848C275.957,468.746,277.142,466.725,277.684,466.971L277.684,466.971z M287.708,464.744
		c-0.114-0.57-0.157-0.963-0.157-0.963s-0.855-8.059,1.151-9.406C289.93,457.822,288.879,461.852,287.708,464.744L287.708,464.744z
		 M319.911,453.652c-0.92-7.072,0.493-9.539,1.118-9.539C321.655,444.113,322.05,452.83,319.911,453.652L319.911,453.652z"/>
</g>
</svg>
