<?xml version="1.0" encoding="utf-8"?>
<!-- Generator: Adobe Illustrator 13.0.0, SVG Export Plug-In . SVG Version: 6.00 Build 14576)  -->
<!DOCTYPE svg PUBLIC "-//W3C//DTD SVG 1.0//EN" "http://www.w3.org/TR/2001/REC-SVG-20010904/DTD/svg10.dtd">
<svg version="1.0" xmlns="http://www.w3.org/2000/svg" xmlns:xlink="http://www.w3.org/1999/xlink" x="0px" y="0px"
	 width="595.275px" height="841.89px" viewBox="0 0 595.275 841.89" enable-background="new 0 0 595.275 841.89"
	 xml:space="preserve">
<g id="Background">
	<rect x="-12.394" y="-11.195" fill="#BCBEC0" width="619.276" height="865.764"/>
	
		<linearGradient id="SVGID_1_" gradientUnits="userSpaceOnUse" x1="298.0913" y1="162.5977" x2="298.0913" y2="818.7103" gradientTransform="matrix(-1 0 0 -1 596.1816 843.3799)">
		<stop  offset="0" style="stop-color:#BCBEC0"/>
		<stop  offset="1" style="stop-color:#00AEEF"/>
	</linearGradient>
	<path fill="url(#SVGID_1_)" d="M192.62-11.195L-12.394,193.818v6.171L198.791-11.195H192.62z M183.62-11.195L-12.394,184.819v6.171
		L189.792-11.195H183.62z M201.62-11.195L-12.394,202.817v6.172L207.791-11.195H201.62z M138.623-11.195L-12.394,139.821v6.172
		L144.793-11.195H138.623z M147.622-11.195L-12.394,148.821v6.171L153.793-11.195H147.622z M210.619-11.195L-12.394,211.817v6.172
		L216.79-11.195H210.619z M165.622-11.195L-12.394,166.819v6.172L171.792-11.195H165.622z M291.614-11.195L273.296,7.122
		l-285.69,285.691v6.171l310.179-310.18H291.614z M156.622-11.195L-12.394,157.82v6.171L162.792-11.195H156.622z M255.616-11.195
		l-268.01,268.011v6.171L261.788-11.195H255.616z M219.618-11.195L-12.394,220.817v6.171L225.79-11.195H219.618z M273.616-11.195
		l-0.319,0.319l-285.69,285.689v6.172L279.787-11.195H273.616z M282.615-11.195L-12.394,283.813v6.172l301.18-301.181H282.615z
		 M264.616-11.195l-277.01,277.01v6.171L270.787-11.195H264.616z M228.618-11.195L-12.394,229.816v6.171L234.789-11.195H228.618z
		 M246.617-11.195L-12.394,247.815v6.172L252.788-11.195H246.617z M237.618-11.195L-12.394,238.815v6.172L243.789-11.195H237.618z
		 M174.621-11.195L-12.394,175.819v6.172L180.792-11.195H174.621z M21.627-11.195l-34.021,34.022v6.172l40.193-40.194H21.627z
		 M12.628-11.195l-25.022,25.023v6.171l31.193-31.194H12.628z M30.627-11.195l-43.021,43.022v6.172l49.193-49.194H30.627z
		 M48.626-11.195l-61.021,61.021v6.171l67.191-67.192H48.626z M39.627-11.195l-52.021,52.022v6.171l58.192-58.193H39.627z
		 M-12.394-11.195v4.196l4.196-4.196H-12.394z M3.63-11.195L-12.394,4.829V11L9.8-11.195H3.63z M-5.37-11.195l-7.024,7.024v6.172
		L0.802-11.195H-5.37z M111.625-11.195L-12.394,112.823v6.171L117.795-11.195H111.625z M93.624-11.195L-12.394,94.823v6.172
		l112.19-112.19H93.624z M57.625-11.195l-70.02,70.021v6.172l76.191-76.192H57.625z M102.624-11.195L-12.394,103.823v6.172
		l121.189-121.19H102.624z M120.624-11.195L-12.394,121.822v6.171L126.794-11.195H120.624z M129.623-11.195L-12.394,130.821v6.172
		L135.794-11.195H129.623z M84.625-11.195l-97.019,97.02v6.171l103.19-103.19H84.625z M66.625-11.195l-79.02,79.021v6.172
		l85.191-85.192H66.625z M75.625-11.195l-88.02,88.021v6.171l94.19-94.191H75.625z M549.771-11.195h-6.171L273.296,259.108
		L-12.394,544.8v6.171L315.38,223.196L549.771-11.195z M513.773-11.195h-6.171L273.296,223.11l-285.69,285.691v6.171L315.38,187.198
		L513.773-11.195z M531.772-11.195h-6.171L273.296,241.11v-0.001l-285.69,285.691v6.171L315.38,205.197L531.772-11.195z
		 M315.38,178.199L504.774-11.195h-6.172L273.296,214.111l-285.69,285.69v6.172L315.38,178.199L315.38,178.199z M522.773-11.195
		h-6.172L273.296,232.11l-285.69,285.69v6.172L315.38,196.198L522.773-11.195z M459.776-11.195h-6.171l-180.309,180.31v-0.001
		l-285.69,285.69v6.172L315.38,133.201L459.776-11.195z M300.613-11.195l-27.317,27.317l-285.69,285.69v6.171L306.785-11.195
		H300.613z M486.775-11.195h-6.172L273.296,196.112l-285.69,285.69v6.172L315.38,160.2L486.775-11.195z M477.775-11.195h-6.171
		L273.296,187.112l-285.69,285.691v6.171L315.38,151.2L477.775-11.195z M495.774-11.195h-6.171L273.296,205.112v-0.001
		l-285.69,285.691v6.171L315.38,169.199L495.774-11.195z M315.389,277.184L603.75-11.195h-6.172L273.296,313.105l-0.008-0.008
		L-12.394,598.796v6.172L315.38,277.175L315.389,277.184z M315.389,268.184L594.75-11.195h-6.171L273.296,304.105l-0.008-0.008
		L-12.394,589.796v6.172L315.38,268.175L315.389,268.184z M315.38,214.197L540.772-11.195h-6.172L273.296,250.109L-12.394,535.8
		v6.172L315.38,214.197L315.38,214.197z M315.389,259.184L585.751-11.195h-6.171L273.296,295.105l-0.008-0.008L-12.394,580.796
		v6.172L315.38,259.175L315.389,259.184z M273.289,412.098L-12.394,697.796v1.974h4.197L315.38,376.175l0.008,0.008L604.865,86.689
		l1.414,1.414L273.296,421.104l-0.008-0.008L-5.369,699.77h6.171L315.38,385.175l0.008,0.008L604.865,95.689l1.414,1.414
		L273.296,430.104l-0.008-0.008L3.63,699.77h6.171L315.38,394.175l0.008,0.008l289.478-289.493l1.414,1.414l-332.983,333
		l-0.008-0.007L12.629,699.77H18.8l296.58-296.595l0.008,0.007l289.478-289.492l1.414,1.414l-332.983,333l-0.007-0.008
		L21.628,699.77h6.171L315.38,412.175l0.007,0.007l289.479-289.492l1.414,1.414L273.296,457.103l-0.007-0.007L30.627,699.77h6.171
		L315.38,421.175l0.007,0.007l289.479-289.492l1.414,1.414L273.296,466.103l-0.007-0.007L39.626,699.77h6.172L315.38,430.175
		l0.007,0.007l289.479-289.492l1.414,1.414L273.296,475.102l-0.007-0.007L48.625,699.77h6.172L315.38,439.175l0.007,0.007
		l289.479-289.492l1.414,1.414L273.296,484.102l-0.006-0.007L57.625,699.77h6.171L315.38,448.175l0.007,0.007l289.479-289.492
		l1.414,1.414L273.296,493.101l-0.006-0.006L66.625,699.77h6.171L315.38,457.175l0.006,0.006l289.479-289.491l1.414,1.414
		L273.296,502.101l-0.006-0.006L75.624,699.77h6.171L315.38,466.175l0.006,0.006l289.479-289.491l1.414,1.414L273.296,511.1
		l-0.006-0.006L84.623,699.77h6.172L315.38,475.175l0.006,0.006l289.479-289.491l1.414,1.414L273.296,520.1l-0.006-0.006
		L93.623,699.77h6.171L315.38,484.175l0.006,0.006l289.479-289.491l1.414,1.414L273.296,529.099l-0.005-0.005L102.622,699.77h6.171
		L315.38,493.175l0.005,0.005l289.48-289.49l1.414,1.414L273.296,538.099l-0.005-0.005L111.622,699.77h6.171L315.38,502.175
		l0.005,0.005l289.48-289.49l1.414,1.414L273.296,547.098l-0.005-0.005L120.621,699.77h6.171L315.38,511.175l0.005,0.005
		l289.48-289.49l1.414,1.414L273.296,556.098l-0.005-0.005L129.62,699.77h6.172L315.38,520.175l0.005,0.005l289.48-289.49
		l1.414,1.414L273.296,565.097l-0.005-0.004L138.619,699.77h6.172L315.38,529.175l0.005,0.005l289.48-289.49l1.414,1.414
		L273.296,574.097l-0.004-0.005L147.619,699.77h6.172L315.38,538.175l0.004,0.004l289.481-289.489l1.414,1.414L273.296,583.096
		l-0.004-0.004L156.619,699.77h6.171l152.59-152.595l0.004,0.004l289.481-289.489l1.414,1.414L273.296,592.096l-0.004-0.004
		L165.618,699.77h6.172l143.59-143.595l0.004,0.004l289.481-289.489l1.414,1.414L273.296,601.095l-0.004-0.003l-98.675,98.678h6.171
		L315.38,565.175l0.004,0.004l289.481-289.489l1.414,1.414L273.296,610.095l-0.004-0.004l-89.676,89.679h6.172L315.38,574.175
		l0.004,0.003l289.481-289.488l1.414,1.414l-332.983,332.99l-0.003-0.003l-80.677,80.679h6.171L315.38,583.175l0.003,0.003
		l289.482-289.488l1.414,1.414l-332.983,332.99l-0.003-0.003l-71.677,71.679h6.171L315.38,592.175l0.003,0.003l289.482-289.488
		l1.414,1.414L273.296,637.093l-0.003-0.003l-62.678,62.68h6.172l98.592-98.595l0.003,0.003l289.482-289.488l1.414,1.414
		L273.296,646.093l-0.003-0.003l-53.679,53.68h6.172l89.593-89.595l0.003,0.003l289.482-289.488l1.414,1.414L273.296,655.092
		l-0.002-0.002l-44.679,44.68h6.171l80.593-80.595l0.002,0.002l289.483-289.487l1.414,1.414L273.296,664.092l-0.002-0.002
		l-35.68,35.68h6.172l71.593-71.595l0.002,0.002l289.483-289.487l1.414,1.414L273.296,673.091l-0.002-0.002l-26.68,26.681h6.172
		l62.593-62.595l0.002,0.002l289.483-289.487l1.414,1.414L273.296,682.091l-0.002-0.002l-17.68,17.681h6.172l53.593-53.595
		l0.002,0.002l289.483-289.487l1.414,1.414L273.296,691.09l-0.002-0.001l-8.681,8.681h6.172l44.594-44.595l0.002,0.002
		l289.483-289.487l1.414,1.414L273.617,699.77h6.169l35.594-35.595l0.001,0.001l289.484-289.486l1.414,1.414L282.616,699.77h6.17
		l26.594-26.595l0.001,0.001l289.484-289.486l1.414,1.414L291.616,699.77h6.17l17.594-17.595l0.001,0.001l289.484-289.486
		l1.414,1.414L300.615,699.77h6.171l8.594-8.595l0.001,0.001l289.484-289.486l1.414,1.414L309.615,699.77h6.171l289.079-289.08
		l1.414,1.414L318.614,699.77h6.172l280.079-280.08l1.414,1.414L327.614,699.77h6.171l271.08-271.081l1.414,1.414L336.613,699.77
		h6.171l262.081-262.082l1.414,1.414L345.613,699.77h6.171l253.081-253.082l1.414,1.414L354.612,699.77h6.171l244.082-244.082
		l1.414,1.414L363.612,699.77h6.171l235.082-235.083l1.414,1.414L372.611,699.77h6.171l226.083-226.084l1.414,1.414L381.611,699.77
		h6.171l217.083-217.084l1.414,1.414L390.61,699.77h6.171l208.084-208.084l1.414,1.414L399.61,699.77h6.171l199.084-199.085
		l1.414,1.414L408.609,699.77h6.171l190.085-190.086l1.414,1.414L417.609,699.77h6.171l181.085-181.086l1.414,1.414L426.608,699.77
		h6.171l172.086-172.086l1.414,1.414L435.608,699.77h6.171l163.086-163.087l1.414,1.414L444.607,699.77h6.171l154.087-154.088
		l1.414,1.414L453.607,699.77h6.171l145.087-145.088l1.414,1.414L462.606,699.77h6.171l136.088-136.088l1.414,1.414L471.605,699.77
		h6.172l127.088-127.089l1.414,1.414L480.605,699.77h6.171l118.089-118.09l1.414,1.414L489.604,699.77h6.172l109.089-109.09
		l1.414,1.414L498.604,699.77h6.171l100.09-100.09l1.414,1.414l-98.676,98.676h6.172l91.09-91.091l1.414,1.414l-89.676,89.677h6.171
		l82.091-82.092l1.414,1.414l-80.677,80.678h6.172l73.091-73.092l1.414,1.414l-71.677,71.678h6.171l64.092-64.092l1.414,1.414
		l-62.678,62.678h6.172l55.092-55.093l1.414,1.414l-53.678,53.679h6.171l46.093-46.094l1.414,1.414l-44.679,44.68h6.172
		l37.093-37.094l1.414,1.414l-35.679,35.68h6.171l28.094-28.094l1.414,1.414l-26.68,26.68h6.172l19.094-19.095l1.414,1.414
		L588.6,699.77h6.171l10.095-10.096l1.414,1.414l-8.681,8.682h6.172l1.095-1.096l1.096,1.096h2.614V-11.195h-2.595l0.299,0.299
		L273.296,322.105l-0.008-0.008L-12.394,607.796v6.172L315.38,286.175l0.009,0.009L604.865-3.311l1.414,1.414L273.296,331.105
		l-0.008-0.008L-12.394,616.796v6.172L315.38,295.175l0.009,0.009L604.865,5.689l1.414,1.414L273.296,340.105l-0.008-0.008
		L-12.394,625.796v6.172L315.38,304.175l0.009,0.009L604.865,14.689l1.414,1.414L273.296,349.105l-0.008-0.008L-12.394,634.796
		v6.172L315.38,313.175l0.009,0.009L604.865,23.689l1.414,1.414L273.296,358.105l-0.008-0.008L-12.394,643.796v6.172L315.38,322.175
		l0.009,0.009L604.865,32.689l1.414,1.414L273.296,367.105l-0.008-0.008L-12.394,652.796v6.172L315.38,331.175l0.009,0.009
		L604.865,41.689l1.414,1.414L273.296,376.105l-0.008-0.008L-12.394,661.796v6.172L315.38,340.175l0.009,0.009L604.865,50.689
		l1.414,1.414L273.296,385.105l-0.008-0.008L-12.394,670.796v6.172L315.38,349.175l0.009,0.009L604.865,59.689l1.414,1.414
		L273.296,394.105l-0.008-0.008L-12.394,679.796v6.172L315.38,358.175l0.009,0.009L604.865,68.689l1.414,1.414L273.296,403.105
		l-0.008-0.008L-12.394,688.796v6.172L315.38,367.175l0.009,0.009L604.865,77.689l1.414,1.414L273.296,412.105L273.289,412.098z
		 M315.389,250.184L576.752-11.195h-6.172L273.296,286.105l-0.008-0.008L-12.394,571.796v6.172L315.38,250.175L315.389,250.184z
		 M315.389,232.184L558.753-11.195H552.6L273.296,268.108l-285.69,285.69v6.169L315.38,232.175L315.389,232.184z M315.389,241.184
		L567.752-11.195h-6.172L273.296,277.105l-0.008-0.008L-12.394,562.796v6.172L315.38,241.175L315.389,241.184z M315.38,142.201
		L468.776-11.195h-6.172L273.296,178.113l-285.69,285.69v6.172L315.38,142.201L315.38,142.201z M360.781-11.195h-6.17
		l-81.315,81.314l-285.69,285.69v6.172L315.38,34.206L360.781-11.195z M342.783-11.195h-6.172L273.296,52.12l-285.69,285.69v6.171
		L315.38,16.208L342.783-11.195z M351.782-11.195h-6.171L273.296,61.12L-12.394,346.81v6.172L315.38,25.207L351.782-11.195z
		 M369.781-11.195h-6.172l-90.313,90.313L-12.394,364.81v6.171L315.38,43.206L369.781-11.195z M315.784-11.195h-6.171
		l-36.317,36.317l-285.69,285.689v6.172L315.38-10.791L315.784-11.195z M378.781-11.195h-6.172l-99.313,99.313l-285.69,285.69v6.171
		L315.38,52.206L378.781-11.195z M324.783-11.195h-6.17l-45.317,45.316l-285.69,285.69v6.172L315.38-1.792L324.783-11.195z
		 M333.783-11.195h-6.172L273.296,43.12l-285.69,285.691v6.171L315.38,7.208L333.783-11.195z M450.777-11.195h-6.172
		l-171.309,171.31l-285.69,285.69v6.171L315.38,124.202L450.777-11.195z M432.777-11.195h-6.17L273.296,142.115l-285.69,285.69
		v6.172L315.38,106.202L432.777-11.195z M423.778-11.195h-6.171L273.296,133.116v-0.001l-285.69,285.69v6.172L315.38,97.203
		L423.778-11.195z M441.777-11.195h-6.172l-162.309,162.31l-285.69,285.691v6.171L315.38,115.202L441.777-11.195z M387.78-11.195
		h-6.171L273.296,97.118l-285.69,285.689v6.172L315.38,61.205L387.78-11.195z M396.779-11.195h-6.17L273.296,106.117l-285.69,285.69
		v6.172L315.38,70.204L396.779-11.195z M414.779-11.195h-6.172L273.296,124.116l-285.69,285.69v6.171L315.38,88.204L414.779-11.195z
		 M405.779-11.195h-6.172L273.296,115.116l-285.69,285.691v6.171L315.38,79.204L405.779-11.195z"/>
</g>
<g id="mask">
	<path fill="#FFFFFF" d="M595.275,841.89H0V0h595.275V841.89z M878.74-283.465H-283.465v1408.819H878.74V-283.465z"/>
</g>
<g id="Vector_Elements">
	
		<path fill-rule="evenodd" clip-rule="evenodd" fill="#010101" stroke="#010101" stroke-linecap="round" stroke-linejoin="round" d="
		M178.06,66.949h231.052c32.906,0,62.205,26.686,62.205,59.593v594.354c0,32.907-29.299,59.593-62.205,59.593H178.06
		c-32.906,0-59.592-26.686-59.592-59.593V126.542C118.468,93.635,145.154,66.949,178.06,66.949z"/>
	<linearGradient id="SVGID_2_" gradientUnits="userSpaceOnUse" x1="294.8926" y1="48.9082" x2="294.8926" y2="141.9608">
		<stop  offset="0" style="stop-color:#FFFFFF"/>
		<stop  offset="1" style="stop-color:#000000"/>
	</linearGradient>
	<path fill-rule="evenodd" clip-rule="evenodd" fill="url(#SVGID_2_)" d="M183.288,72.176c-32.906,0-59.592,26.686-59.592,59.592
		v101.359c62.049-61.396,135.964-98.222,222.164-98.222c44.12,0,81.154,9.645,120.23,27.286v-30.423
		c0-32.906-29.299-59.592-62.205-59.592H183.288z"/>
	
		<circle fill-rule="evenodd" clip-rule="evenodd" fill="none" stroke="#989898" stroke-linecap="round" stroke-linejoin="round" cx="294.893" cy="732.134" r="40.513"/>
	<linearGradient id="SVGID_3_" gradientUnits="userSpaceOnUse" x1="294.8931" y1="767.4199" x2="294.8931" y2="742.4015">
		<stop  offset="0" style="stop-color:#FFFFFF"/>
		<stop  offset="1" style="stop-color:#000000"/>
	</linearGradient>
	<path opacity="0.75" fill-rule="evenodd" clip-rule="evenodd" fill="url(#SVGID_3_)" d="M262.223,735.012
		c0,17.904,14.636,32.408,32.67,32.408c18.033,0,32.671-14.504,32.671-32.408c0-3.27-0.494-6.435-1.411-9.412
		c-4.051,13.305-16.518,23-31.26,23c-14.744,0-27.209-9.695-31.26-23C262.717,728.577,262.223,731.742,262.223,735.012z"/>
	<path fill-rule="evenodd" clip-rule="evenodd" fill="#FFFFFF" d="M289.926,717.759h12.545c5.201,0,9.41,4.212,9.41,9.411v12.545
		c0,5.2-4.209,9.408-9.41,9.408h-12.545c-5.202,0-9.408-4.208-9.408-9.408V727.17C280.518,721.971,284.724,717.759,289.926,717.759z
		"/>
	
		<path fill-rule="evenodd" clip-rule="evenodd" fill="#010101" stroke="#FFFFFF" stroke-linecap="round" stroke-linejoin="round" d="
		M290.975,720.372h10.453c4.338,0,7.841,3.501,7.841,7.842v10.454c0,4.341-3.503,7.842-7.841,7.842h-10.453
		c-4.341,0-7.844-3.501-7.844-7.842v-10.454C283.131,723.873,286.634,720.372,290.975,720.372z"/>
	
		<path fill-rule="evenodd" clip-rule="evenodd" fill="#010101" stroke="#989898" stroke-linecap="round" stroke-linejoin="round" d="
		M264.312,113.995h63.775c4.052,0,7.319,3.267,7.319,7.318v3.661c0,4.051-3.268,7.317-7.319,7.317h-63.775
		c-4.051,0-7.316-3.266-7.316-7.317v-3.661C256.995,117.262,260.261,113.995,264.312,113.995z"/>
	<linearGradient id="SVGID_4_" gradientUnits="userSpaceOnUse" x1="296.1997" y1="128.145" x2="296.1997" y2="120.3152">
		<stop  offset="0" style="stop-color:#FFFFFF"/>
		<stop  offset="0.1642" style="stop-color:#BBB7B7"/>
		<stop  offset="0.456" style="stop-color:#6D6868"/>
		<stop  offset="0.7027" style="stop-color:#433E3E"/>
		<stop  offset="0.8915" style="stop-color:#2C2728"/>
		<stop  offset="1" style="stop-color:#231F20"/>
	</linearGradient>
	<path fill-rule="evenodd" clip-rule="evenodd" fill="url(#SVGID_4_)" d="M270.69,116.609h51.018c3.241,0,5.855,1.882,5.855,4.182
		v2.091c0,2.3-2.614,4.182-5.855,4.182H270.69c-3.241,0-5.855-1.882-5.855-4.182v-2.091
		C264.835,118.491,267.449,116.609,270.69,116.609z"/>
	
		<rect x="128.923" y="174.11" fill-rule="evenodd" clip-rule="evenodd" fill="#010101" stroke="#989898" stroke-linecap="round" stroke-linejoin="round" width="334.552" height="507.056"/>
</g>
</svg>
